name Walk9.mot
datacolumns 19
datarows 12
range 1.33500000 1.39000000
endheader

                time	   L_ground_force_vx	   L_ground_force_vy	   L_ground_force_vz	   L_ground_force_px	   L_ground_force_py	   L_ground_force_pz	   R_ground_force_vx	   R_ground_force_vy	   R_ground_force_vz	   R_ground_force_px	   R_ground_force_py	   R_ground_force_pz	   L_ground_torque_x	   L_ground_torque_y	   L_ground_torque_z	   R_ground_torque_x	   R_ground_torque_y	   R_ground_torque_z	
          1.33500000	         -3.03682942	         74.62094573	         -3.26132863	          0.00153812	          0.00000000	         -0.00014831	         -0.00000000	          0.00000000	          0.00000000	          0.00000000	          0.00000000	          0.00000000	          0.00000000	          0.21659339	          0.00000000	          0.00000000	          0.00000000	          0.00000000	
          1.34000000	         -6.82817551	        117.42938628	         -5.46799326	         -0.06874568	          0.00000000	         -0.01228617	         -0.00000000	          0.00000000	          0.00000000	          0.00000000	          0.00000000	          0.00000000	          0.00000000	          0.33934161	          0.00000000	          0.00000000	          0.00000000	          0.00000000	
          1.34500000	        -12.04661401	        166.60871509	         -7.32661457	         -0.13374288	          0.00000000	         -0.02363619	         -0.00000000	          0.00000000	          0.00000000	          0.00000000	          0.00000000	          0.00000000	          0.00000000	          0.48011791	          0.00000000	          0.00000000	          0.00000000	          0.00000000	
          1.35000000	        -18.80898086	        220.39028463	         -8.61192000	         -0.19001489	          0.00000000	         -0.03362118	         -0.00000000	          0.00000000	          0.00000000	          0.00000000	          0.00000000	          0.00000000	          0.00000000	          0.63341731	          0.00000000	          0.00000000	          0.00000000	          0.00000000	
          1.35500000	        -27.05160398	        276.33561203	         -9.16031230	         -0.23601527	          0.00000000	         -0.04197098	         -0.00000000	          0.00000000	          0.00000000	          0.00000000	          0.00000000	          0.00000000	          0.00000000	          0.79033186	          0.00000000	          0.00000000	          0.00000000	          0.00000000	
          1.36000000	        -36.43791167	        332.03430259	         -8.87306441	         -0.27156335	          0.00000000	         -0.04864289	         -0.00000000	          0.00000000	         -0.00000000	         -0.00000000	          0.00000000	         -0.00000000	          0.00000000	          0.94010692	          0.00000000	          0.00000000	          0.00000000	          0.00000000	
          1.36500000	        -46.40699655	        385.66132630	         -7.67837038	         -0.29736993	          0.00000000	         -0.05374668	         -0.00000000	          0.00000000	         -0.00000000	         -0.00000000	          0.00000000	         -0.00000000	          0.00000000	          1.07284668	          0.00000000	          0.00000000	          0.00000000	          0.00000000	
          1.37000000	        -56.36316379	        436.06023892	         -5.53554986	         -0.31465731	          0.00000000	         -0.05747943	         -0.00000000	         -0.00000000	         -0.00000000	         -0.00000000	          0.00000000	         -0.00000000	          0.00000000	          1.18193657	          0.00000000	          0.00000000	          0.00000000	          0.00000000	
          1.37500000	        -65.87491849	        482.66343892	         -2.47607640	         -0.32487441	          0.00000000	         -0.06007383	         -0.00000000	         -0.00000001	         -0.00000000	         -0.00000000	          0.00000000	         -0.00000000	          0.00000000	          1.26514441	          0.00000000	          0.00000000	          0.00000000	          0.00000000	
          1.38000000	        -74.77021133	        525.33828745	          1.38062699	         -0.32950161	          0.00000000	         -0.06176404	          0.00000000	         -0.00000001	         -0.00000000	         -0.00000000	          0.00000000	         -0.00000000	          0.00000000	          1.32510881	          0.00000000	          0.00000000	          0.00000000	          0.00000000	
          1.38500000	        -83.06620141	        564.16392894	          5.84089881	         -0.32993336	          0.00000000	         -0.06276281	          0.00000000	         -0.00000002	         -0.00000000	         -0.00000000	          0.00000000	         -0.00000000	          0.00000000	          1.36892150	          0.00000000	          0.00000000	         -0.00000000	          0.00000000	
          1.39000000	        -90.80711701	        599.30721378	         10.66155227	         -0.32740715	          0.00000000	         -0.06325227	          0.00000000	         -0.00000003	         -0.00000000	         -0.00000000	          0.00000000	         -0.00000000	          0.00000000	          1.40700248	          0.00000000	          0.00000000	         -0.00000000	          0.00000000	
